<?xml version="1.0" encoding="UTF-8"?>
<!DOCTYPE svg PUBLIC "-//W3C//DTD SVG 1.1//EN" "http://www.w3.org/Graphics/SVG/1.1/DTD/svg11.dtd">
<!-- Creator: CorelDRAW -->
<svg xmlns="http://www.w3.org/2000/svg" xml:space="preserve" width="210mm" height="210mm" version="1.1" shape-rendering="geometricPrecision" text-rendering="geometricPrecision" image-rendering="optimizeQuality" fill-rule="evenodd" clip-rule="evenodd"
viewBox="0 0 21000 21000"
 xmlns:xlink="http://www.w3.org/1999/xlink"
 xmlns:xodm="http://www.corel.com/coreldraw/odm/2003">
 <g id="Camada_x0020_1">
  <metadata id="CorelCorpID_0Corel-Layer"/>
  <g id="_1915870198272">
   <path fill="#2999CE" fill-rule="nonzero" d="M9323.37 1889.83c402.96,-26.96 805.64,-68.09 1209.99,-67.26 0.55,351.83 0.83,703.65 1.39,1055.76 -575.82,-12.79 -1154.97,25.84 -1719.11,145.34 -383.23,65.3 -753.95,185.08 -1128.28,287.07 -601.67,187.58 -1179.15,446.59 -1733.56,744.78 -13.06,1572.1 0.83,3144.75 -6.95,4717.12 2.78,191.48 -5.56,386.01 37.24,574.43 55.86,284.01 113.94,569.43 213.98,841.77 132.84,313.75 259.56,632.23 438.53,923.75 457.99,747.55 1059.93,1411.19 1773.58,1922.53 367.67,260.95 746.45,509.12 1146.35,718.66 7.78,395.45 7.5,791.46 4.44,1187.2 -618.88,-276.79 -1192.75,-643.9 -1746.33,-1032.69 -237.33,-177.3 -462.16,-370.72 -683.65,-566.92 -580.25,-512.45 -1065.76,-1126.62 -1459.54,-1791.92 -200.09,-347.66 -355.72,-718.38 -487.45,-1096.6 -120.05,-318.2 -153.12,-659.46 -234.27,-987.67 -55.57,-208.15 -55.3,-425.2 -58.08,-638.35 1.67,-1667.41 1.95,-3334.83 0,-5002.25 0.56,-127.83 1.39,-255.11 7.22,-382.39 221.5,-119.77 432.14,-258.17 657.53,-371.28 440.47,-248.17 909.01,-440.2 1380.06,-621.39 172.02,-63.08 349.61,-110.32 522.18,-172.3 249.55,-89.49 509.12,-143.68 765.62,-208.15 365.17,-66.14 728.38,-150.35 1099.11,-179.24z"/>
   <path fill="#2999CE" fill-rule="nonzero" d="M11023.02 6318.77c-7.78,146.17 -27.51,291.51 -57.24,434.63 -75.04,351.55 -138.4,705.6 -192.87,1060.76 -59.75,325.98 -127.28,650.85 -157.85,981.27 421.03,8.62 842.05,-5.27 1263.07,12.79 -133.67,275.67 -307.36,529.13 -452.14,798.69 -156.19,293.19 -340.72,569.98 -501.35,860.95 -230.65,421.85 -494.94,824.26 -726.15,1246.11 -105.61,165.91 -193.7,342.1 -301.53,506.62 100.04,-611.95 260.4,-1213.6 337.65,-1829.44 34.74,-196.2 84.76,-389.61 109.22,-587.76 -429.36,-10.29 -858.44,1.66 -1287.25,-8.06 49.47,-121.45 115.34,-235.1 183.14,-347.1 240.67,-385.73 453.26,-787.86 676.7,-1183.59 375.99,-644.74 725.32,-1304.2 1106.6,-1945.87z"/>
   <path fill="#2999CE" fill-rule="nonzero" d="M10537.53 11829.85c165.9,-6.38 332.09,-11.95 497.72,-26.39 5.84,724.76 -16.12,1450.09 12.51,2174.58 -84.76,75.6 -166.74,154.52 -264.01,214.26 -272.9,183.98 -552.75,356.83 -832.04,530.8 -3.06,-567.47 1.11,-1134.67 -4.73,-1701.87 3.06,-97.55 -11.95,-206.21 41.69,-294.03 183.41,-293.18 351.27,-595.82 522.46,-896.23l26.4 -1.12z"/>
   <path fill="#9DA2A4" fill-rule="nonzero" d="M10533.36 1822.57c354.33,1.39 711.99,-16.12 1062.14,51.42 178.41,36.12 359.61,51.41 540.81,66.97 471.32,78.93 931.53,208.43 1392.28,333.21 815.65,259 1597.94,616.11 2334.11,1051.58 79.2,48.35 165.36,90.04 229.55,158.96 5.56,735.05 -6.67,1470.38 3.33,2205.44 -4.72,85.87 7.23,175.63 -8.05,261.78 -61.14,153.13 -190.92,266.23 -328.77,350.44 -214.81,145.34 -462.43,226.77 -698.64,329.03 7.22,-851.49 3.05,-1702.71 3.89,-2553.93 -242.61,-148.12 -500.5,-267.9 -760.07,-382.11 -700.86,-330.43 -1455.09,-532.74 -2214.05,-677.8 -193.14,-28.63 -387.39,-49.19 -579.15,-85.88 -321.25,-62.81 -650.84,-50.85 -975.99,-53.35 -0.56,-352.11 -0.84,-703.93 -1.39,-1055.76z"/>
   <path fill="#9DA2A4" fill-rule="nonzero" d="M8452.98 4034.68c34.74,-171.47 207.87,-313.75 387.39,-289.58 133.12,1.95 302.08,23.07 365.44,162.86 107.28,104.76 66.7,259 79.49,390.72 -1.4,554.98 -1.4,1109.95 -2.22,1664.93 -287.08,1.66 -573.6,1.93 -860.39,-0.56 -1.95,-365.73 -10.01,-731.72 17.78,-1096.61 17.79,-277.07 0.28,-554.97 12.51,-831.76z"/>
   <path fill="#9DA2A4" fill-rule="nonzero" d="M11699.99 4164.73c-42.24,-223.43 171.75,-438.8 391.3,-424.35 123.93,-16.67 235.1,17.79 333.48,102.82 61.41,107.83 122.55,225.1 108.1,354.61 8.33,588.6 0,1177.47 1.67,1766.07 -277.63,1.39 -555.25,1.39 -832.6,-0.27 -0.55,-599.72 -1.95,-1199.43 -1.95,-1798.88z"/>
   <path fill="#9DA2A4" fill-rule="nonzero" d="M7255.22 6257.9c182.85,-23.9 368.22,-16.4 552.47,-17.78 956.54,7.22 1913.08,-5 2869.62,5.83 -64.75,110.61 -108.65,242.06 -211.48,324.32 -430.47,58.64 -854.28,156.74 -1271.13,277.9 -513.29,132 -1005.17,351.27 -1534.86,414.63 -152.85,7.51 -315.69,36.96 -458.26,-36.96 -118.94,-29.18 -153.12,-175.63 -142.28,-279.57 6.67,-195.92 -43.08,-408.52 48.62,-591.1 16.96,-70.03 90.6,-80.6 147.3,-97.27z"/>
   <path fill="#9DA2A4" fill-rule="nonzero" d="M11369.29 6242.34c227.32,-0.55 455.76,-5.55 683.09,9.73 544.41,40.85 1090.49,4.16 1635.73,17.79 56.98,1.66 112.55,21.39 160.63,51.96 127.56,214.27 63.92,472.99 78.65,708.65l-28.63 3.34c-0.55,-131.17 -2.22,-261.78 -6.66,-392.4 -302.37,-23.34 -603.34,-61.97 -903.75,-102.27 -535.79,-69.75 -1077.15,-83.37 -1616.84,-73.65 -1.11,-74.47 -1.94,-148.95 -2.22,-223.15z"/>
   <path fill="#626B6F" fill-rule="nonzero" d="M15758.76 6302.37c137.85,-84.21 267.63,-197.31 328.77,-350.44 11.11,939.32 0.83,1878.63 6.38,2818.22 5.84,406.57 -81.98,805.36 -161.73,1201.65 -177.02,627.5 -411.85,1243.89 -759.51,1798.03 -264.01,436.58 -596.1,825.64 -936.54,1203.32 -688.36,725.05 -1524.01,1291.97 -2397.19,1771.35 -344.32,197.03 -713.92,343.77 -1072.14,512.73 -108.66,47.24 -221.77,116.16 -345.72,72.81 -163.68,-48.63 -311.52,-137.29 -466.59,-207.03 -2.51,-133.95 -5.29,-266.52 -2.78,-399.91 279.29,-173.97 559.14,-346.82 832.04,-530.8 97.27,-59.74 179.25,-138.66 264.01,-214.26 713.09,-380.44 1414.8,-798.69 2019.79,-1339.49 404.36,-347.38 753.96,-754.22 1067.43,-1184.14 200.37,-300.97 391.57,-612.22 521.34,-950.99 86.16,-222.32 194.81,-437.97 246.23,-671.69 34.46,-187.58 70.31,-374.61 105.6,-561.92 71.98,-496.06 55.58,-999.05 56.14,-1498.73 0.27,-379.89 -0.84,-760.06 -4.17,-1139.68 236.21,-102.26 483.83,-183.69 698.64,-329.03z"/>
   <path fill="#626B6F" fill-rule="nonzero" d="M11344 6466.05l27.51 -0.56c539.69,-9.72 1081.05,3.9 1616.84,73.65 300.41,40.3 601.38,78.93 903.75,102.27 4.44,130.62 6.11,261.23 6.66,392.4 -1.39,63.36 -26.4,128.94 -76.14,170.07 -74.76,36.96 -166.19,26.41 -244.55,35.85 -408.24,11.68 -816.77,-9.17 -1224.17,15.84 -375.72,20.56 -752.28,21.96 -1128,5.56 -5.01,-270.67 82.53,-529.41 118.1,-795.08z"/>
   <path fill="#626B6F" fill-rule="nonzero" d="M9194.7 6848.17c416.85,-121.16 840.66,-219.26 1271.13,-277.9 -95.32,234.54 -236.78,445.47 -358.78,666.13 -313.74,2.78 -627.5,9.72 -940.7,30.29 -502.17,7.5 -1004.61,9.17 -1506.51,-3.89 529.69,-63.36 1021.57,-282.63 1534.86,-414.63z"/>
   <path fill="#626B6F" fill-rule="nonzero" d="M7505.33 7548.49c647.79,0 1295.58,-1.95 1943.37,0 150.35,-2.78 299.59,15 449.09,31.67 -115.88,254.84 -268.73,490.51 -401.29,736.73 -205.92,375.72 -424.08,744.77 -631.12,1119.94 -125.89,224.83 -265.67,441.59 -389.06,668.08 491.61,3.33 983.22,-2.78 1474.83,-0.56 -68.09,344.61 -123.66,691.71 -184.53,1037.97 -45.02,197.31 -83.92,396.29 -103.66,598.33 -300.13,-36.96 -582.75,-161.18 -842.87,-310.7 -606.39,-348.76 -1072.43,-947.37 -1231.95,-1631.29 -70.03,-337.37 -85.31,-683.36 -84.75,-1026.85 1.38,-407.96 0.83,-815.64 1.94,-1223.32z"/>
   <path fill="#626B6F" fill-rule="nonzero" d="M11148.92 7576.83c767.56,-2.22 1535.13,-0.84 2302.98,-0.56 1.38,510.23 -1.12,1020.46 2.22,1530.69 -2.22,163.41 7.5,330.15 -35.58,490.22 -85.59,394.9 -227.88,786.47 -476.04,1109.95 -181.2,233.43 -392.4,446.03 -636.12,614.44 -382.11,249.28 -814.25,435.2 -1271.13,481.89 -165.63,14.44 -331.82,20.01 -497.72,26.39 113.66,-263.17 271.51,-503.55 415.18,-750.33 341.55,-584.99 690.32,-1165.8 1024.08,-1755.23 162.57,-289.86 344.04,-568.87 501.89,-861.5 -491.06,1.11 -981.84,5 -1472.88,2.77 58.35,-294.57 103.1,-591.38 143.12,-888.73z"/>
   <path fill="#626B6F" fill-rule="nonzero" d="M5282.39 16746.23c129.49,-0.27 259.55,1.11 389.34,2.51 -1.67,188.69 -6.12,377.66 -15.01,566.64 -24.74,458.54 -10.01,917.92 -14.17,1377.01 -120.62,-1.12 -240.11,-0.28 -360.45,-0.28 -1.11,-648.62 -0.83,-1297.25 0.29,-1945.88z"/>
   <path fill="#626B6F" fill-rule="nonzero" d="M11646.64 16776.53c119.5,-1.67 240.1,-1.67 360.16,-2.23 0.56,639.18 1.11,1278.36 -0.28,1917.81 -130.06,-0.84 -258.73,0.28 -387.95,-0.28 -19.73,-638.9 28.07,-1276.68 28.07,-1915.3z"/>
   <path fill="#626B6F" fill-rule="nonzero" d="M3448.78 16858.5c230.94,-1.66 461.88,-5 692.81,-0.82 188.15,3.05 388.79,9.44 553.31,113.1 168.41,85.04 286.24,264.29 280.95,455.76l4.18 125.62c22.23,212.31 -121.17,410.18 -300.42,508.83 -247.06,133.95 -538.02,96.16 -807.31,105.61 -5,174.52 -7.77,349.88 -9.17,525.23 -103.65,0 -310.97,0.28 -414.91,0.28 -1.11,-611.39 -1.94,-1222.5 0.56,-1833.61zm394.07 332.1l0 0c-8.9,213.43 -6.95,426.86 1.11,640.85 191.47,-1.67 384.9,9.73 575.82,-12.79 132.28,-35.29 167.57,-203.15 165.35,-320.42 30.56,-142.57 -87.82,-270.96 -218.72,-299.02 -174.52,-10.28 -349.04,-13.34 -523.56,-8.62z"/>
   <path fill="#626B6F" fill-rule="nonzero" d="M10219.88 16860.45c93.38,0.84 279.85,2.78 373.23,3.62 83.92,73.64 102.55,190.64 151.73,286.79 57.53,141.73 132.01,275.96 191.2,416.85 143.12,382.4 335.43,743.68 491.06,1120.51 -101.72,-0.83 -305.14,-2.22 -407.13,-3.06 -59.19,-131.72 -121.73,-262.34 -164.52,-400.73 -289.02,-13.62 -578.32,-14.46 -867.06,-1.39 -40.3,139.23 -104.49,269.84 -161.74,402.68 -101.43,1.39 -304.58,4.17 -406.02,5.28 268.46,-609.17 549.98,-1213.04 799.25,-1830.55zm103.38 619.73l0 0c-55.58,163.13 -142.83,314.03 -187.03,481.32 190.09,6.68 380.46,8.34 571.09,4.73 -84.48,-243.72 -202.58,-474.94 -269.56,-724.49 -51.42,72.25 -86.71,154.23 -114.5,238.44z"/>
   <path fill="#626B6F" fill-rule="nonzero" d="M15260.21 16969.39c127.84,-1.11 257.33,-0.28 386.01,-0.28 0.55,110.33 1.67,221.21 3.05,332.37 118.95,-0.27 239.28,1.4 359.33,2.22 0,75.6 0,227.05 0,302.92 -120.89,0.28 -240.38,2.51 -360.44,4.17 -1.94,237.33 -2.78,474.94 -1.39,712.82 23.9,20.85 48.36,42.24 72.81,63.65 84.49,-6.95 170.91,-13.35 255.67,-23.07 35.3,88.09 70.04,176.47 99.21,267.06 -97.26,50.3 -201.47,96.71 -314.86,85.04 -139.51,1.39 -266.23,-65.86 -378.23,-140.89 -87.82,-75.6 -136.17,-195.93 -120.6,-312.09 -7.51,-217.6 -3.34,-434.64 -2.23,-651.69 -86.43,-5.27 -165.63,-2.49 -250.39,-5.55 0.28,-75.03 0.83,-225.66 1.11,-300.7 79.49,-5 166.19,-1.94 247.62,-4.72 0.83,-110.88 1.94,-221.21 3.33,-331.26z"/>
   <path fill="#626B6F" fill-rule="nonzero" d="M8198.14 17292.59c162.02,-26.67 334.31,-20.01 489.67,37.52 59.74,50.57 115.88,107.27 168.13,166.46 5.28,-63.36 10.84,-126.17 16.67,-188.14 117.28,-3.33 235.39,-4.73 353.21,-6.66 -8.06,489.93 50.86,992.39 -78.36,1472.05 -35.58,110.05 -107,205.92 -191.76,283.74 -101.71,94.21 -247.06,122.55 -380.45,131.99 -176.75,8.07 -354.88,2.23 -528.01,-34.18 -90.04,-20.01 -182.86,-61.41 -232.33,-143.12 -11.95,-97.54 54.47,-182.57 87.82,-269.56 145.07,37.51 257.9,166.46 418.52,144.51 137.84,-4.72 326.54,38.63 416.02,-102.27 83.65,-91.71 89.77,-222.04 115.05,-336.54 -126.16,63.64 -237.32,184.25 -391.84,161.74 -159.24,3.34 -343.76,26.95 -473.55,-88.65 -121.72,-109.21 -250.38,-239 -275.4,-408.52 -8.61,-137.28 -38.07,-283.74 17.79,-414.9 87.26,-194.27 257.61,-357.39 468.82,-405.47zm138.12 297.36l0 0c-146.18,58.08 -287.08,202.31 -247.61,374.89 -17.51,112.28 31.67,215.65 115.89,286.52 135.88,58.63 291.79,60.86 434.91,36.96 120.34,-63.08 237.88,-190.37 198.14,-339.6 9.46,-248.44 -272.62,-426.03 -501.33,-358.77z"/>
   <path fill="#626B6F" fill-rule="nonzero" d="M12816.61 17298.99c178.96,-43.64 367.66,-16.4 542.47,30.29 127,83.65 274.01,173.96 333.2,321.81 41.68,148.12 42.24,304.85 64.47,456.59 -352.94,4.17 -705.59,-1.94 -1058.53,0.28 48.91,92.54 100.33,187.59 186.75,251.78 97.83,36.4 205.93,22.79 308.76,28.63 116.43,-0.56 200.36,-100.05 299.01,-147.57 52.53,84.76 107.28,166.74 157.58,254.28 -101.43,132 -275.13,189.81 -436.31,195.37 -111.44,2.49 -223.15,13.33 -333.2,-2.78 -126.45,-20.57 -233.16,-96.72 -332.1,-173.14 -103.1,-79.2 -183.42,-193.7 -203.43,-324.03 -13.06,-177.03 -16.12,-359.61 43.08,-529.41 74.48,-181.47 246.23,-304.02 428.25,-362.1zm-10.84 352.93l0 0c-78.09,50.85 -77.54,153.13 -108.1,232.33 235.38,4.72 471.32,2.78 706.98,-7.78 -18.06,-68.09 -22.23,-147.01 -80.86,-195.37 -60.32,-77.54 -165.91,-102.55 -259.57,-99.77 -85.59,12.23 -194.25,-3.61 -258.45,70.59z"/>
   <path fill="#626B6F" fill-rule="nonzero" d="M14624.65 17322.33c90.59,-16.4 182.3,-30.85 274.29,-42.52 -3.9,106.16 -8.62,212.87 -14.18,319.59 -82.81,11.39 -177.58,-5.28 -251.5,43.91 -104.77,61.41 -210.37,157.29 -195.09,294.57 -21.96,249.29 -13.61,500.51 -13.89,750.9 -120.89,0.55 -240.39,2.78 -360.44,3.89 -0.84,-463.82 -4.17,-927.64 4.45,-1391.19 115.05,0.84 231.49,3.34 347.37,5.56 4.73,32.52 13.9,97.27 18.63,129.79 63.35,-38.07 121.71,-85.6 190.36,-114.5z"/>
   <path fill="#626B6F" fill-rule="nonzero" d="M16306.79 17423.76c147.57,-90.87 313.76,-155.35 490.78,-146.73 180.36,-0.56 392.12,-11.95 534.96,119.22 70.03,63.08 144.51,135.62 162.3,232.6 60.3,341.27 43.35,690.32 35.29,1035.47 -115.05,-3.61 -228.99,4.45 -342.93,-6.67l-2.78 -130.06c-90.6,56.42 -176.19,131.45 -284.85,148.96 -173.13,22.51 -372.4,33.62 -520.79,-75.32 -104.77,-86.98 -195.37,-222.59 -162.86,-364.6 26.41,-134.23 116.73,-282.35 262.07,-302.92 220.66,-41.96 445.48,-42.51 669.46,-53.63 -5.55,-100.04 -31.95,-215.65 -125.6,-269.57 -96.43,-46.69 -210.66,-25.28 -312.36,-32.23 -115.06,-1.95 -202.88,81.98 -289.02,146.45 -40.3,-99.49 -81.99,-198.42 -113.67,-300.97zm304.86 712.82l0 0c-5.28,70.31 -15.01,134.51 -14.17,207.32 60.03,123.11 213.99,101.99 328.48,101.15l100.6 -50.29c115.05,-41.69 177.58,-190.64 133.67,-302.09 -181.74,-38.9 -371,-0.27 -548.58,43.91z"/>
   <path fill="#626B6F" fill-rule="nonzero" d="M6060.52 17302.04c119.77,-0.27 240.1,0.84 360.16,2.78 1.94,286.52 -10.84,574.14 17.5,860.11 4.44,85.59 71.14,159.23 153.4,179.8 115.05,26.12 249.84,26.4 347.1,-49.74 60.59,-73.09 64.48,-175.36 78.93,-263.73 20.57,-241.22 15.28,-483.27 16.4,-724.77 128.66,-2.79 258.17,-3.61 387.12,-4.45 1.38,464.1 3.33,928.48 -3.07,1392.85 -117.27,-5 -234.54,3.62 -350.71,-10.84 -1.67,-40.57 -5,-121.72 -6.67,-162.02 -105.05,77.26 -206.75,186.76 -351.54,170.08 -166.19,19.17 -356.56,13.9 -483,-110.6 -56.69,-77.82 -136.45,-147.57 -155.62,-245.4 -25.01,-344.32 -8.62,-689.47 -10,-1034.07z"/>
  </g>
 </g>
</svg>
